{
	"asset":{
		"generator":"Khronos glTF Blender I/O v4.1.63",
		"version":"2.0"
	},
	"extensionsUsed":[
		"KHR_materials_specular"
	],
	"scene":0,
	"scenes":[
		{
			"name":"Scene",
			"nodes":[
				5
			]
		}
	],
	"nodes":[
		{
			"mesh":0,
			"name":"Shadow.SK",
			"rotation":[
				0.7071068286895752,
				0,
				0,
				0.7071068286895752
			]
		},
		{
			"extras":{
				"niftools":{
					"extra_data_store":{}
				}
			},
			"mesh":1,
			"name":"WheelFL.SK",
			"rotation":[
				0,
				0,
				0.012288209982216358,
				0.9999246001243591
			],
			"translation":[
				0.8199999928474426,
				0.3149999976158142,
				1.2985299825668335
			]
		},
		{
			"extras":{
				"niftools":{
					"extra_data_store":{}
				}
			},
			"mesh":2,
			"name":"WheelFR.SK",
			"rotation":[
				-0.012288209982216358,
				-0.9999246001243591,
				0,
				7.549220981672988e-08
			],
			"translation":[
				-0.8199999928474426,
				0.3149999976158142,
				1.2985299825668335
			]
		},
		{
			"extras":{
				"niftools":{
					"extra_data_store":{}
				}
			},
			"mesh":3,
			"name":"WheelRL.SK",
			"translation":[
				0.8100000023841858,
				0.3149999976158142,
				-1.296489953994751
			]
		},
		{
			"extras":{
				"niftools":{
					"extra_data_store":{}
				}
			},
			"mesh":4,
			"name":"WheelRR.SK",
			"rotation":[
				0,
				-1,
				0,
				7.549790126404332e-08
			],
			"translation":[
				-0.8100000023841858,
				0.3149999976158142,
				-1.296489953994751
			]
		},
		{
			"children":[
				0,
				1,
				2,
				3,
				4
			],
			"mesh":5,
			"name":"Aventus_PS1.SK"
		}
	],
	"materials":[
		{
			"alphaCutoff":0.5,
			"alphaMode":"MASK",
			"extensions":{
				"KHR_materials_specular":{
					"specularTexture":{
						"index":0
					}
				}
			},
			"name":"PS1_Aventus_Sketchfab",
			"pbrMetallicRoughness":{
				"baseColorTexture":{
					"index":1
				},
				"metallicFactor":0,
				"roughnessFactor":0.5
			}
		}
	],
	"meshes":[
		{
			"name":"Shadow",
			"primitives":[
				{
					"attributes":{
						"POSITION":0,
						"NORMAL":1,
						"TEXCOORD_0":2,
						"COLOR_0":3
					},
					"indices":4,
					"material":0
				}
			]
		},
		{
			"name":"Cylinder.001",
			"primitives":[
				{
					"attributes":{
						"POSITION":5,
						"NORMAL":6,
						"TEXCOORD_0":7,
						"COLOR_0":8
					},
					"indices":9,
					"material":0
				}
			]
		},
		{
			"name":"Cylinder.002",
			"primitives":[
				{
					"attributes":{
						"POSITION":10,
						"NORMAL":11,
						"TEXCOORD_0":12,
						"COLOR_0":13
					},
					"indices":9,
					"material":0
				}
			]
		},
		{
			"name":"Cylinder.003",
			"primitives":[
				{
					"attributes":{
						"POSITION":14,
						"NORMAL":15,
						"TEXCOORD_0":16,
						"COLOR_0":17
					},
					"indices":9,
					"material":0
				}
			]
		},
		{
			"name":"Cylinder.004",
			"primitives":[
				{
					"attributes":{
						"POSITION":18,
						"NORMAL":19,
						"TEXCOORD_0":20,
						"COLOR_0":21
					},
					"indices":9,
					"material":0
				}
			]
		},
		{
			"name":"Plane.007",
			"primitives":[
				{
					"attributes":{
						"POSITION":22,
						"NORMAL":23,
						"TEXCOORD_0":24,
						"COLOR_0":25
					},
					"indices":26,
					"material":0
				}
			]
		}
	],
	"textures":[
		{
			"sampler":0,
			"source":0
		},
		{
			"sampler":0,
			"source":1
		}
	],
	"images":[
		{
			"mimeType":"image/png",
			"name":"Aventus_PS1_SpecMask",
			"uri":"Aventus_PS1_SpecMask.png"
		},
		{
			"mimeType":"image/png",
			"name":"Aventus_PS1_yellow",
			"uri":"Aventus_PS1_yellow.png"
		}
	],
	"accessors":[
		{
			"bufferView":0,
			"componentType":5126,
			"count":10,
			"max":[
				0.9473254680633545,
				2.3980894088745117,
				-0.0012519888114184141
			],
			"min":[
				-0.9473254680633545,
				-2.403463125228882,
				-0.0012520088348537683
			],
			"type":"VEC3"
		},
		{
			"bufferView":1,
			"componentType":5126,
			"count":10,
			"type":"VEC3"
		},
		{
			"bufferView":2,
			"componentType":5126,
			"count":10,
			"type":"VEC2"
		},
		{
			"bufferView":3,
			"componentType":5126,
			"count":10,
			"type":"VEC3"
		},
		{
			"bufferView":4,
			"componentType":5123,
			"count":24,
			"type":"SCALAR"
		},
		{
			"bufferView":5,
			"componentType":5126,
			"count":105,
			"max":[
				0.12405938655138016,
				0.3360217213630676,
				0.3360217213630676
			],
			"min":[
				-0.14990702271461487,
				-0.3360217213630676,
				-0.3360217213630676
			],
			"type":"VEC3"
		},
		{
			"bufferView":6,
			"componentType":5126,
			"count":105,
			"type":"VEC3"
		},
		{
			"bufferView":7,
			"componentType":5126,
			"count":105,
			"type":"VEC2"
		},
		{
			"bufferView":8,
			"componentType":5126,
			"count":105,
			"type":"VEC3"
		},
		{
			"bufferView":9,
			"componentType":5123,
			"count":234,
			"type":"SCALAR"
		},
		{
			"bufferView":10,
			"componentType":5126,
			"count":105,
			"max":[
				0.12405938655138016,
				0.3360217213630676,
				0.3360217213630676
			],
			"min":[
				-0.14990702271461487,
				-0.3360217213630676,
				-0.3360217213630676
			],
			"type":"VEC3"
		},
		{
			"bufferView":11,
			"componentType":5126,
			"count":105,
			"type":"VEC3"
		},
		{
			"bufferView":12,
			"componentType":5126,
			"count":105,
			"type":"VEC2"
		},
		{
			"bufferView":13,
			"componentType":5126,
			"count":105,
			"type":"VEC3"
		},
		{
			"bufferView":14,
			"componentType":5126,
			"count":105,
			"max":[
				0.12405938655138016,
				0.3360217213630676,
				0.3360217213630676
			],
			"min":[
				-0.14990702271461487,
				-0.3360217213630676,
				-0.3360217213630676
			],
			"type":"VEC3"
		},
		{
			"bufferView":15,
			"componentType":5126,
			"count":105,
			"type":"VEC3"
		},
		{
			"bufferView":16,
			"componentType":5126,
			"count":105,
			"type":"VEC2"
		},
		{
			"bufferView":17,
			"componentType":5126,
			"count":105,
			"type":"VEC3"
		},
		{
			"bufferView":18,
			"componentType":5126,
			"count":105,
			"max":[
				0.12405938655138016,
				0.3360217213630676,
				0.3360217213630676
			],
			"min":[
				-0.14990702271461487,
				-0.3360217213630676,
				-0.3360217213630676
			],
			"type":"VEC3"
		},
		{
			"bufferView":19,
			"componentType":5126,
			"count":105,
			"type":"VEC3"
		},
		{
			"bufferView":20,
			"componentType":5126,
			"count":105,
			"type":"VEC2"
		},
		{
			"bufferView":21,
			"componentType":5126,
			"count":105,
			"type":"VEC3"
		},
		{
			"bufferView":22,
			"componentType":5126,
			"count":374,
			"max":[
				0.9843674302101135,
				1.3267066478729248,
				2.3944687843322754
			],
			"min":[
				-0.9843674302101135,
				0.1403571218252182,
				-2.411492347717285
			],
			"type":"VEC3"
		},
		{
			"bufferView":23,
			"componentType":5126,
			"count":374,
			"type":"VEC3"
		},
		{
			"bufferView":24,
			"componentType":5126,
			"count":374,
			"type":"VEC2"
		},
		{
			"bufferView":25,
			"componentType":5126,
			"count":374,
			"type":"VEC3"
		},
		{
			"bufferView":26,
			"componentType":5123,
			"count":1038,
			"type":"SCALAR"
		}
	],
	"bufferViews":[
		{
			"buffer":0,
			"byteLength":120,
			"byteOffset":0,
			"target":34962
		},
		{
			"buffer":0,
			"byteLength":120,
			"byteOffset":120,
			"target":34962
		},
		{
			"buffer":0,
			"byteLength":80,
			"byteOffset":240,
			"target":34962
		},
		{
			"buffer":0,
			"byteLength":120,
			"byteOffset":320,
			"target":34962
		},
		{
			"buffer":0,
			"byteLength":48,
			"byteOffset":440,
			"target":34963
		},
		{
			"buffer":0,
			"byteLength":1260,
			"byteOffset":488,
			"target":34962
		},
		{
			"buffer":0,
			"byteLength":1260,
			"byteOffset":1748,
			"target":34962
		},
		{
			"buffer":0,
			"byteLength":840,
			"byteOffset":3008,
			"target":34962
		},
		{
			"buffer":0,
			"byteLength":1260,
			"byteOffset":3848,
			"target":34962
		},
		{
			"buffer":0,
			"byteLength":468,
			"byteOffset":5108,
			"target":34963
		},
		{
			"buffer":0,
			"byteLength":1260,
			"byteOffset":5576,
			"target":34962
		},
		{
			"buffer":0,
			"byteLength":1260,
			"byteOffset":6836,
			"target":34962
		},
		{
			"buffer":0,
			"byteLength":840,
			"byteOffset":8096,
			"target":34962
		},
		{
			"buffer":0,
			"byteLength":1260,
			"byteOffset":8936,
			"target":34962
		},
		{
			"buffer":0,
			"byteLength":1260,
			"byteOffset":10196,
			"target":34962
		},
		{
			"buffer":0,
			"byteLength":1260,
			"byteOffset":11456,
			"target":34962
		},
		{
			"buffer":0,
			"byteLength":840,
			"byteOffset":12716,
			"target":34962
		},
		{
			"buffer":0,
			"byteLength":1260,
			"byteOffset":13556,
			"target":34962
		},
		{
			"buffer":0,
			"byteLength":1260,
			"byteOffset":14816,
			"target":34962
		},
		{
			"buffer":0,
			"byteLength":1260,
			"byteOffset":16076,
			"target":34962
		},
		{
			"buffer":0,
			"byteLength":840,
			"byteOffset":17336,
			"target":34962
		},
		{
			"buffer":0,
			"byteLength":1260,
			"byteOffset":18176,
			"target":34962
		},
		{
			"buffer":0,
			"byteLength":4488,
			"byteOffset":19436,
			"target":34962
		},
		{
			"buffer":0,
			"byteLength":4488,
			"byteOffset":23924,
			"target":34962
		},
		{
			"buffer":0,
			"byteLength":2992,
			"byteOffset":28412,
			"target":34962
		},
		{
			"buffer":0,
			"byteLength":4488,
			"byteOffset":31404,
			"target":34962
		},
		{
			"buffer":0,
			"byteLength":2076,
			"byteOffset":35892,
			"target":34963
		}
	],
	"samplers":[
		{
			"magFilter":9728,
			"minFilter":9984
		}
	],
	"buffers":[
		{
			"byteLength":37968,
			"uri":"scene2.bin"
		}
	]
}
